<mxfile host="app.diagrams.net" modified="2021-07-07T11:02:02.074Z" agent="5.0 (Windows NT 10.0; Win64; x64) AppleWebKit/537.36 (KHTML, like Gecko) Chrome/91.0.4472.124 Safari/537.36" etag="9MCjmoCrp0TTOYm0dCnd" version="14.7.0" type="github">
  <diagram id="r-hylsQk2buEMuudMst9" name="Page-1">
    <mxGraphModel dx="1808" dy="526" grid="1" gridSize="10" guides="1" tooltips="1" connect="1" arrows="1" fold="1" page="1" pageScale="1" pageWidth="827" pageHeight="1169" math="0" shadow="0">
      <root>
        <mxCell id="0" />
        <mxCell id="1" parent="0" />
        <mxCell id="-zaVFE4zl3Fa0eDb3ieX-1" value="开始" style="rounded=1;whiteSpace=wrap;html=1;fontSize=12;glass=0;strokeWidth=1;shadow=0;" vertex="1" parent="1">
          <mxGeometry x="-60" y="70" width="120" height="40" as="geometry" />
        </mxCell>
        <mxCell id="-zaVFE4zl3Fa0eDb3ieX-2" value="状态" style="swimlane;fontStyle=0;childLayout=stackLayout;horizontal=1;startSize=26;horizontalStack=0;resizeParent=1;resizeParentMax=0;resizeLast=0;collapsible=1;marginBottom=0;" vertex="1" parent="1">
          <mxGeometry x="160" y="70" width="140" height="104" as="geometry" />
        </mxCell>
        <mxCell id="-zaVFE4zl3Fa0eDb3ieX-3" value="上盖已掀起" style="text;strokeColor=none;fillColor=none;align=left;verticalAlign=top;spacingLeft=4;spacingRight=4;overflow=hidden;rotatable=0;points=[[0,0.5],[1,0.5]];portConstraint=eastwest;" vertex="1" parent="-zaVFE4zl3Fa0eDb3ieX-2">
          <mxGeometry y="26" width="140" height="26" as="geometry" />
        </mxCell>
        <mxCell id="-zaVFE4zl3Fa0eDb3ieX-4" value="座圈在加热" style="text;strokeColor=none;fillColor=none;align=left;verticalAlign=top;spacingLeft=4;spacingRight=4;overflow=hidden;rotatable=0;points=[[0,0.5],[1,0.5]];portConstraint=eastwest;" vertex="1" parent="-zaVFE4zl3Fa0eDb3ieX-2">
          <mxGeometry y="52" width="140" height="26" as="geometry" />
        </mxCell>
        <mxCell id="-zaVFE4zl3Fa0eDb3ieX-5" value="5分钟计时中" style="text;strokeColor=none;fillColor=none;align=left;verticalAlign=top;spacingLeft=4;spacingRight=4;overflow=hidden;rotatable=0;points=[[0,0.5],[1,0.5]];portConstraint=eastwest;" vertex="1" parent="-zaVFE4zl3Fa0eDb3ieX-2">
          <mxGeometry y="78" width="140" height="26" as="geometry" />
        </mxCell>
      </root>
    </mxGraphModel>
  </diagram>
</mxfile>
